<?xml version="1.0" standalone="no"?>
<!DOCTYPE svg PUBLIC "-//W3C//DTD SVG 20010904//EN"
 "http://www.w3.org/TR/2001/REC-SVG-20010904/DTD/svg10.dtd">
<svg version="1.0" xmlns="http://www.w3.org/2000/svg"
 width="500.000000pt" height="500.000000pt" viewBox="0 0 500.000000 500.000000"
 preserveAspectRatio="xMidYMid meet">

<g transform="translate(0.000000,500.000000) scale(0.100000,-0.100000)"
fill="#000000" stroke="none">
<path d="M2265 3975 c-586 -95 -1055 -519 -1205 -1089 -38 -144 -50 -240 -50
-389 0 -540 285 -1028 755 -1296 485 -276 1104 -252 1570 61 322 218 540 542
627 936 18 81 22 130 23 297 0 219 -9 283 -67 465 -120 376 -394 696 -752 877
-80 40 -269 105 -376 128 -107 23 -407 29 -525 10z m540 -218 c602 -153 1008
-693 981 -1307 -6 -131 -26 -251 -61 -355 -15 -46 -93 -213 -113 -243 -7 -10
-25 3 -73 48 -359 345 -1046 462 -1607 274 -187 -62 -345 -153 -480 -278 l-62
-58 -55 113 c-94 197 -132 385 -122 608 16 342 149 637 392 870 188 179 420
298 671 345 127 24 401 15 529 -17z"/>
<path d="M2435 3449 c-187 -22 -357 -168 -410 -352 -63 -219 47 -469 249 -571
146 -73 301 -73 450 0 254 124 346 460 192 698 -107 164 -285 248 -481 225z"/>
</g>
</svg>
