<?xml version="1.0" standalone="no"?>
<!DOCTYPE svg PUBLIC "-//W3C//DTD SVG 20010904//EN"
 "http://www.w3.org/TR/2001/REC-SVG-20010904/DTD/svg10.dtd">
<svg version="1.0" xmlns="http://www.w3.org/2000/svg"
 width="500.000000pt" height="500.000000pt" viewBox="0 0 500.000000 500.000000"
 preserveAspectRatio="xMidYMid meet">

<g transform="translate(0.000000,500.000000) scale(0.100000,-0.100000)"
fill="#000000" stroke="none">
<path d="M1209 3710 c-61 -10 -99 -31 -136 -74 -60 -67 -58 -37 -58 -941 0
-777 1 -833 18 -877 21 -55 80 -111 134 -130 30 -10 237 -13 940 -16 l902 -3
21 -58 c87 -238 381 -350 615 -233 67 34 165 134 197 202 28 59 48 141 48 193
0 31 -47 137 -60 137 -16 0 -49 -108 -53 -171 -8 -123 -69 -212 -184 -270 -61
-30 -77 -33 -153 -34 -73 0 -93 4 -141 28 -67 32 -142 109 -172 175 -33 71
-31 197 5 273 33 73 84 128 150 164 75 41 196 47 283 14 33 -12 84 -24 113
-27 l54 -4 -17 34 c-28 54 -40 63 -140 99 l-95 34 0 641 c0 718 1 710 -67 776
-80 78 4 73 -1138 74 -561 1 -1041 -2 -1066 -6z m2096 -114 c60 -25 69 -52 73
-208 l4 -138 -1132 0 -1132 0 4 143 c4 152 11 177 56 201 40 22 2075 24 2127
2z m-1705 -586 l0 -130 -240 0 -240 0 0 130 0 130 240 0 240 0 0 -130z m590 0
l0 -130 -240 0 -240 0 0 130 0 130 240 0 240 0 0 -130z m590 0 l0 -130 -240 0
-240 0 0 130 0 130 240 0 240 0 0 -130z m590 0 l0 -130 -240 0 -240 0 0 130 0
130 240 0 240 0 0 -130z m-1770 -365 l0 -125 -240 0 -240 0 0 125 0 125 240 0
240 0 0 -125z m590 0 l0 -125 -240 0 -240 0 0 125 0 125 240 0 240 0 0 -125z
m590 0 l0 -125 -240 0 -240 0 0 125 0 125 240 0 240 0 0 -125z m590 0 l0 -125
-240 0 -240 0 0 125 0 125 240 0 240 0 0 -125z m-590 -365 l0 -130 -240 0
-240 0 0 130 0 130 240 0 240 0 0 -130z m590 35 l0 -95 -40 -20 c-69 -35 -156
-50 -302 -50 l-138 0 0 130 0 130 240 0 240 0 0 -95z m-1770 -40 l0 -125 -240
0 -240 0 0 125 0 125 240 0 240 0 0 -125z m590 0 l0 -125 -240 0 -240 0 0 125
0 125 240 0 240 0 0 -125z m-590 -365 l0 -130 -195 0 c-216 0 -242 6 -270 60
-10 19 -15 58 -15 115 l0 85 240 0 240 0 0 -130z m590 0 l0 -130 -240 0 -240
0 0 130 0 130 240 0 240 0 0 -130z m598 3 l-3 -128 -242 -3 -243 -2 0 130 0
130 245 0 246 0 -3 -127z m292 122 c0 -2 -9 -19 -20 -37 -25 -41 -60 -151 -60
-189 0 -28 -2 -29 -50 -29 l-50 0 0 130 0 130 90 0 c50 0 90 -2 90 -5z"/>
<path d="M1605 3566 c-133 -59 -95 -258 50 -258 109 0 176 141 104 219 -49 51
-98 64 -154 39z m80 -106 c4 -6 -1 -23 -11 -37 -16 -25 -17 -26 -30 -8 -22 30
-18 55 10 55 14 0 28 -5 31 -10z"/>
<path d="M2784 3566 c-71 -31 -99 -108 -65 -178 42 -87 139 -108 208 -45 31
29 37 41 40 88 5 66 -17 107 -70 132 -42 20 -71 21 -113 3z m86 -109 c0 -7 -6
-22 -14 -33 -14 -18 -16 -18 -32 -2 -14 14 -15 20 -4 32 15 19 50 21 50 3z"/>
<path d="M3962 2199 c-23 -7 -111 -83 -279 -240 -134 -126 -248 -229 -253
-229 -5 0 -29 29 -55 64 -42 57 -94 96 -127 96 -7 0 -9 -17 -6 -48 4 -40 16
-63 77 -145 62 -84 76 -97 101 -97 24 0 77 45 308 260 229 215 281 268 291
299 6 21 11 41 11 45 0 8 -28 6 -68 -5z"/>
</g>
</svg>
