<?xml version="1.0" standalone="no"?>
<!DOCTYPE svg PUBLIC "-//W3C//DTD SVG 20010904//EN"
 "http://www.w3.org/TR/2001/REC-SVG-20010904/DTD/svg10.dtd">
<svg version="1.0" xmlns="http://www.w3.org/2000/svg"
 width="500.000000pt" height="500.000000pt" viewBox="0 0 500.000000 500.000000"
 preserveAspectRatio="xMidYMid meet">

<g transform="translate(0.000000,500.000000) scale(0.100000,-0.100000)"
fill="#000000" stroke="none">
<path d="M3295 3895 c-98 -21 -166 -52 -239 -107 -379 -285 -281 -878 169
-1024 93 -31 225 -37 315 -15 215 52 389 227 441 441 7 30 13 93 12 140 -4
359 -353 641 -698 565z m45 -165 c0 -66 4 -62 -103 -101 -39 -14 -39 -14 -74
25 -19 21 -31 42 -27 46 7 6 180 83 202 89 1 1 2 -26 2 -59z m268 4 c43 -19
72 -39 70 -46 -2 -6 -21 -25 -41 -41 l-36 -30 -65 28 -66 28 0 53 0 54 33 -6
c17 -3 65 -21 105 -40z m-539 -161 c31 -39 35 -68 16 -116 -24 -60 -42 -77
-84 -77 -63 0 -64 6 -18 118 22 56 47 102 53 102 7 0 22 -12 33 -27z m755 -53
c13 -25 26 -58 30 -75 4 -16 9 -38 12 -47 5 -16 -2 -18 -49 -18 l-54 0 -32 72
-31 72 37 38 c43 44 44 43 87 -42z m-316 4 c160 -80 172 -301 21 -401 -34 -23
-55 -28 -113 -31 -64 -3 -76 0 -123 28 -133 77 -153 261 -40 368 69 66 168 80
255 36z m-431 -321 c14 -32 25 -68 25 -80 1 -27 -41 -82 -62 -82 -10 -1 -30
35 -58 102 -23 56 -42 105 -42 110 0 4 25 7 56 7 l55 0 26 -57z m780 12 c-6
-41 -45 -132 -70 -163 -8 -10 -18 -5 -48 24 l-38 37 19 49 c33 86 44 98 97 98
l46 0 -6 -45z m-517 -306 l0 -59 -50 20 c-27 11 -74 29 -102 41 -29 11 -56 24
-61 28 -4 4 16 23 44 43 l51 36 59 -26 59 -25 0 -58z m312 84 c22 -14 38 -33
36 -41 -2 -11 -193 -102 -215 -102 -1 0 -3 26 -3 58 l0 57 58 27 c73 33 78 33
124 1z"/>
<path d="M2330 3365 c-107 -34 -170 -131 -170 -263 -1 -127 -18 -242 -45 -297
-31 -63 -113 -144 -184 -180 -51 -26 -186 -65 -222 -65 -10 0 -40 20 -66 45
-73 70 -108 77 -377 73 -201 -3 -227 -5 -243 -21 -17 -17 -18 -62 -18 -772 0
-710 1 -755 18 -772 16 -16 42 -18 235 -21 270 -4 304 2 377 68 41 37 64 50
97 55 47 7 214 -6 378 -30 67 -10 251 -19 504 -26 447 -11 472 -9 535 53 53
51 65 90 64 196 0 50 3 92 8 92 4 0 25 15 45 32 66 58 88 141 63 233 -9 31 -8
40 2 44 23 7 100 84 116 115 12 23 14 50 10 116 l-5 85 39 23 c119 69 134 255
28 345 -21 19 -56 39 -78 45 -26 8 -155 12 -400 12 -341 0 -362 1 -357 18 46
148 51 346 12 495 -30 116 -67 201 -104 240 -62 65 -172 91 -262 62z m136
-121 c44 -21 76 -76 106 -179 20 -68 23 -101 22 -225 -1 -125 -5 -159 -28
-245 -30 -110 -28 -141 10 -155 15 -6 191 -10 420 -10 333 0 400 -2 424 -15
84 -44 59 -163 -38 -179 -20 -3 -121 -6 -224 -6 -205 0 -218 -4 -218 -60 0
-52 26 -60 192 -60 l148 0 32 -29 c43 -38 44 -89 5 -129 -27 -27 -30 -27 -186
-32 -179 -6 -194 -11 -189 -69 4 -48 32 -61 136 -61 74 0 85 -3 107 -24 32
-32 40 -69 25 -107 -19 -44 -56 -59 -147 -59 -92 0 -123 -15 -123 -60 0 -37
20 -57 70 -65 84 -14 119 -108 61 -166 l-29 -29 -334 0 c-231 0 -368 4 -444
14 -60 8 -194 22 -299 31 -104 9 -205 18 -222 21 l-33 5 0 528 c0 410 3 531
13 545 7 10 42 23 87 32 135 28 246 87 331 176 95 99 139 230 139 418 0 122
15 162 71 192 42 22 71 23 115 2z m-920 -709 c44 -30 45 -41 42 -663 l-3 -594
-33 -29 -32 -29 -195 0 -195 0 0 665 0 665 198 0 c157 0 202 -3 218 -15z"/>
</g>
</svg>
