<?xml version="1.0" standalone="no"?>
<!DOCTYPE svg PUBLIC "-//W3C//DTD SVG 20010904//EN"
 "http://www.w3.org/TR/2001/REC-SVG-20010904/DTD/svg10.dtd">
<svg version="1.0" xmlns="http://www.w3.org/2000/svg"
 width="500.000000pt" height="500.000000pt" viewBox="0 0 500.000000 500.000000"
 preserveAspectRatio="xMidYMid meet">

<g transform="translate(0.000000,500.000000) scale(0.100000,-0.100000)"
fill="#000000" stroke="none">
<path d="M2330 3980 c-206 -55 -368 -185 -454 -365 -51 -106 -68 -195 -74
-392 l-5 -173 -248 0 -249 0 0 -1025 0 -1025 1200 0 1200 0 0 1025 0 1025
-249 0 -249 0 -4 193 c-5 162 -9 203 -28 262 -38 119 -88 203 -171 285 -89 89
-158 132 -276 173 -118 40 -279 48 -393 17z m381 -232 c92 -44 151 -95 201
-172 64 -100 78 -162 78 -357 l0 -169 -489 0 -488 0 -6 113 c-8 167 5 265 46
351 60 125 152 207 287 254 56 20 81 22 181 19 108 -3 120 -5 190 -39z m779
-1723 l0 -815 -990 0 -990 0 0 815 0 815 990 0 990 0 0 -815z"/>
<path d="M2882 2735 c-233 -64 -309 -352 -137 -519 81 -79 209 -107 319 -70
64 22 147 100 177 166 32 73 32 183 0 250 -66 136 -221 211 -359 173z m28 -98
c0 -18 -47 -40 -56 -26 -3 6 -4 11 -3 13 4 2 52 24 57 25 1 1 2 -5 2 -12z
m160 -17 c0 -15 -14 -18 -37 -9 -13 5 -23 15 -23 23 0 12 5 13 30 5 17 -6 30
-15 30 -19z m-288 -115 c-6 -14 -16 -25 -22 -25 -13 0 -13 13 2 45 8 17 15 22
21 16 7 -7 7 -19 -1 -36z m376 20 c15 -32 15 -45 2 -45 -12 0 -41 55 -33 64
12 11 20 6 31 -19z m-125 -25 c50 -55 27 -135 -47 -160 -112 -36 -178 131 -72
185 42 21 85 12 119 -25z m-253 -129 c12 -24 13 -51 2 -51 -9 0 -32 44 -32 60
0 17 19 11 30 -9z m390 9 c0 -16 -23 -60 -32 -60 -9 0 -11 31 -2 54 7 17 34
22 34 6z m-262 -144 c3 -14 0 -15 -25 -4 -37 16 -36 15 -29 27 9 15 50 -3 54
-23z m166 25 c7 -11 -52 -36 -62 -27 -8 9 26 36 44 36 7 0 15 -4 18 -9z"/>
<path d="M2393 2464 c-50 -25 -65 -58 -74 -161 -4 -50 -15 -105 -23 -121 -23
-45 -71 -80 -133 -98 -53 -15 -55 -15 -76 4 -37 34 -73 42 -197 42 -94 0 -122
-3 -134 -16 -14 -13 -16 -64 -16 -398 0 -345 2 -385 17 -397 12 -10 50 -14
143 -14 104 0 130 3 151 18 76 54 57 51 217 33 81 -9 233 -17 337 -18 171 -1
194 1 219 17 34 23 56 70 56 122 0 27 7 45 25 61 26 25 41 78 32 112 -3 13 1
24 14 30 27 15 49 63 49 108 0 27 6 45 21 58 54 48 59 125 11 177 -37 39 -78
47 -254 47 l-156 0 5 94 c5 78 2 105 -16 165 -30 99 -70 142 -137 148 -33 2
-60 -2 -81 -13z m106 -99 c41 -53 52 -173 24 -286 -24 -102 -32 -99 218 -99
175 0 210 -2 223 -16 39 -39 9 -54 -105 -54 -115 0 -149 -10 -149 -43 0 -37
19 -47 86 -47 82 0 116 -13 112 -43 -3 -20 -9 -22 -88 -27 -96 -6 -110 -11
-110 -44 0 -32 16 -42 73 -49 57 -6 72 -17 62 -46 -5 -17 -14 -21 -54 -21 -26
0 -55 -6 -65 -13 -22 -16 -18 -57 7 -68 9 -5 25 -13 35 -18 9 -4 17 -19 17
-32 l0 -24 -170 -3 c-103 -2 -228 3 -318 13 -81 8 -154 15 -162 15 -13 0 -15
36 -15 258 l0 259 58 16 c71 19 148 70 179 116 32 47 53 124 53 192 0 86 45
118 89 64z m-480 -339 c8 -9 11 -101 9 -317 l-3 -304 -97 -3 -98 -3 0 321 0
320 89 0 c63 0 92 -4 100 -14z"/>
</g>
</svg>
