<?xml version="1.0" encoding="utf-8"?>
<!-- Generator: Adobe Illustrator 24.0.1, SVG Export Plug-In . SVG Version: 6.00 Build 0)  -->
<svg version="1.1" id="Layer_1" xmlns="http://www.w3.org/2000/svg" xmlns:xlink="http://www.w3.org/1999/xlink" x="0px" y="0px"
	 viewBox="0 0 250 250" style="enable-background:new 0 0 250 250; opacity:0.07;" xml:space="preserve">
<style type="text/css">
	.st0{fill:none;}
	.st1{fill:none;stroke:#2CFF00;stroke-width:0.9913;stroke-miterlimit:10;}
	.st2{fill:#31F900;}
	.st3{fill:none;stroke:#2CFF00;stroke-width:1.0012;stroke-miterlimit:10;}
	.st4{fill:none;stroke:#2CFF00;stroke-width:0.9999;stroke-miterlimit:10;}
	.st5{fill:url(#New_Pattern);}
</style>
<pattern  y="250" width="100" height="100" patternUnits="userSpaceOnUse" id="New_Pattern" viewBox="3 -149.9 100 100" style="overflow:visible;">
	<g>
		<rect x="3" y="-149.9" class="st0" width="100" height="100"/>
		<g>
			<g>
				<g>
					<polygon class="st1" points="137.9,-49.5 113.9,-49.5 101.8,-25 113.9,-0.5 137.9,-0.5 149.9,-25 					"/>
				</g>
			</g>
		</g>
		<g>
			<g>
				<g>
					<polygon class="st1" points="37.9,-49.5 13.9,-49.5 1.8,-25 13.9,-0.5 37.9,-0.5 49.9,-25 					"/>
					<ellipse class="st2" cx="37" cy="-49.4" rx="1.8" ry="1.8"/>
					<ellipse class="st2" cx="13.9" cy="-49.4" rx="1.8" ry="1.8"/>
				</g>
				<g>
					<polygon class="st1" points="87.6,-49.5 63.6,-49.5 51.6,-25 63.6,-0.5 87.6,-0.5 99.7,-25 					"/>
					<ellipse class="st2" cx="86.8" cy="-49.4" rx="1.8" ry="1.8"/>
					<ellipse class="st2" cx="63.6" cy="-49.4" rx="1.8" ry="1.8"/>
				</g>
			</g>
		</g>
		<g>
			<g>
				<polygon class="st3" points="138,-100.1 113.9,-100.1 101.8,-75.1 113.9,-50.2 138,-50.2 150.1,-75.1 				"/>
				<ellipse class="st2" cx="101.8" cy="-74.9" rx="1.8" ry="1.9"/>
			</g>
			<g>
				<g>
					<polygon class="st1" points="137.9,-149.5 113.9,-149.5 101.8,-125 113.9,-100.5 137.9,-100.5 149.9,-125 					"/>
					<ellipse class="st2" cx="101.8" cy="-124.8" rx="1.8" ry="1.8"/>
				</g>
			</g>
		</g>
		<g>
			<g>
				<polygon class="st3" points="38,-100.1 13.9,-100.1 1.8,-75.1 13.9,-50.2 38,-50.2 50.1,-75.1 				"/>
				<ellipse class="st2" cx="37.1" cy="-100" rx="1.8" ry="1.9"/>
				<ellipse class="st2" cx="51.6" cy="-75.1" rx="1.8" ry="1.9"/>
				<ellipse class="st2" cx="13.9" cy="-49.7" rx="1.8" ry="1.9"/>
				<ellipse class="st2" cx="1.8" cy="-74.9" rx="1.8" ry="1.9"/>
				<ellipse class="st2" cx="13.9" cy="-100" rx="1.8" ry="1.9"/>
				<ellipse class="st2" cx="37.1" cy="-49.7" rx="1.8" ry="1.9"/>
			</g>
			<g>
				<g>
					<polygon class="st1" points="37.9,-149.5 13.9,-149.5 1.8,-125 13.9,-100.5 37.9,-100.5 49.9,-125 					"/>
					<ellipse class="st2" cx="37" cy="-149.4" rx="1.8" ry="1.8"/>
					<ellipse class="st2" cx="51.4" cy="-125" rx="1.8" ry="1.8"/>
					<ellipse class="st2" cx="13.9" cy="-100" rx="1.8" ry="1.8"/>
					<ellipse class="st2" cx="1.8" cy="-124.8" rx="1.8" ry="1.8"/>
					<ellipse class="st2" cx="13.9" cy="-149.4" rx="1.8" ry="1.8"/>
					<ellipse class="st2" cx="37" cy="-100" rx="1.8" ry="1.8"/>
				</g>
				<g>
					<polygon class="st4" points="87.6,-100.1 63.6,-100.1 51.6,-75.1 63.6,-50.2 87.6,-50.2 99.7,-75.1 					"/>
					<ellipse class="st2" cx="86.8" cy="-100" rx="1.8" ry="1.9"/>
					<ellipse class="st2" cx="101.2" cy="-75.1" rx="1.8" ry="1.9"/>
					<ellipse class="st2" cx="63.6" cy="-49.7" rx="1.8" ry="1.9"/>
					<ellipse class="st2" cx="51.6" cy="-74.9" rx="1.8" ry="1.9"/>
					<ellipse class="st2" cx="63.6" cy="-100" rx="1.8" ry="1.9"/>
					<ellipse class="st2" cx="86.8" cy="-49.7" rx="1.8" ry="1.9"/>
				</g>
				<g>
					<polygon class="st1" points="87.6,-149.5 63.6,-149.5 51.6,-125 63.6,-100.5 87.6,-100.5 99.7,-125 					"/>
					<ellipse class="st2" cx="86.8" cy="-149.4" rx="1.8" ry="1.8"/>
					<ellipse class="st2" cx="101.2" cy="-125" rx="1.8" ry="1.8"/>
					<ellipse class="st2" cx="63.6" cy="-100" rx="1.8" ry="1.8"/>
					<ellipse class="st2" cx="51.6" cy="-124.8" rx="1.8" ry="1.8"/>
					<ellipse class="st2" cx="63.6" cy="-149.4" rx="1.8" ry="1.8"/>
					<ellipse class="st2" cx="86.8" cy="-100" rx="1.8" ry="1.8"/>
				</g>
			</g>
		</g>
		<g>
			<g>
				<polygon class="st3" points="138,-200.1 113.9,-200.1 101.8,-175.1 113.9,-150.2 138,-150.2 150.1,-175.1 				"/>
			</g>
		</g>
		<g>
			<g>
				<polygon class="st3" points="38,-200.1 13.9,-200.1 1.8,-175.1 13.9,-150.2 38,-150.2 50.1,-175.1 				"/>
				<ellipse class="st2" cx="13.9" cy="-149.7" rx="1.8" ry="1.9"/>
				<ellipse class="st2" cx="37.1" cy="-149.7" rx="1.8" ry="1.9"/>
			</g>
			<g>
				<g>
					<polygon class="st4" points="87.6,-200.1 63.6,-200.1 51.6,-175.1 63.6,-150.2 87.6,-150.2 99.7,-175.1 					"/>
					<ellipse class="st2" cx="63.6" cy="-149.7" rx="1.8" ry="1.9"/>
					<ellipse class="st2" cx="86.8" cy="-149.7" rx="1.8" ry="1.9"/>
				</g>
			</g>
		</g>
	</g>
</pattern>
<rect class="st5" width="250" height="250"/>
</svg>
