<?xml version="1.0" encoding="utf-8"?>
<!-- Generator: Adobe Illustrator 24.0.1, SVG Export Plug-In . SVG Version: 6.00 Build 0)  -->
<svg version="1.1" xmlns="http://www.w3.org/2000/svg" xmlns:xlink="http://www.w3.org/1999/xlink" x="0px" y="0px"
	 viewBox="0 0 574 1080" style="enable-background:new 0 0 574 1080; opacity:0.4;" xml:space="preserve">
<style type="text/css">
	.st0{display:none;}
	.st1{display:inline;}
	.st2{fill:url(#SVGID_1_);}
	.st3{fill:url(#SVGID_2_);}
	.st4{fill:#E05FFF;}
	.st5{fill:#CB00D6;}
	.st6{fill:#8800A0;}
	.st7{fill:#7BFCFF;}
	.st8{fill:#003DFF;}
	.st9{fill:#004FFF;}
	.st10{opacity:0.42;}
</style>
<g id="Layer_2" class="st0">
	<g class="st1">
		<rect width="574" height="1080"/>
	</g>
</g>
<g id="Layer_3">
</g>
<g id="Layer_1">
	<g>
		<path class="st4" d="M398.6,950.4l90.5,24.2l24.2,90.5l-66.2,66.2l-90.5-24.2l-24.2-90.5L398.6,950.4 M397.1,944.9l-70.2,70.2
			l25.7,96l96,25.7l70.2-70.2l-25.7-96L397.1,944.9L397.1,944.9z"/>
	</g>
	<g>
		<path class="st5" d="M67,843.2l128.8,34.5l34.5,128.8l-94.3,94.3L7.2,1066.3l-34.5-128.8L67,843.2 M64.9,835.4l-100,100L1.5,1072
			l136.6,36.6l100-100L201.5,872L64.9,835.4L64.9,835.4z"/>
	</g>
	<g>
		<path class="st6" d="M262.5,767.9l54,14.5l14.5,54l-39.6,39.6l-54-14.5l-14.5-54L262.5,767.9 M261.6,764.6l-42,42l15.4,57.3
			l57.3,15.4l42-42l-15.4-57.3L261.6,764.6L261.6,764.6z"/>
	</g>
	<g class="st10">
		<image style="overflow:visible;" width="437" height="1476" xlink:href="9C2330D8.png"  transform="matrix(1 0 0 1 -134 -213)">
		</image>
	</g>
</g>
</svg>
