<?xml version="1.0" encoding="utf-8"?>
<!-- Generator: Adobe Illustrator 24.0.1, SVG Export Plug-In . SVG Version: 6.00 Build 0)  -->
<svg version="1.1" xmlns="http://www.w3.org/2000/svg" xmlns:xlink="http://www.w3.org/1999/xlink" x="0px" y="0px"
	 viewBox="0 0 574 1080" style="enable-background:new 0 0 574 1080;" xml:space="preserve">
<style type="text/css">
	.st0{display:none;}
	.st1{display:inline;}
	.st2{fill:url(#SVGID_1_);}
	.st3{fill:url(#SVGID_2_);}
	.st4{opacity:0.42;}
	.st5{filter:url(#Adobe_OpacityMaskFilter);}
	.st6{mask:url(#SVGID_3_);}
	.st7{fill:url(#SVGID_4_);}
	.st8{filter:url(#Adobe_OpacityMaskFilter_1_);}
	.st9{mask:url(#SVGID_5_);}
	.st10{fill:#FF00FF;}
	.st11{filter:url(#Adobe_OpacityMaskFilter_2_);}
	.st12{mask:url(#SVGID_6_);}
	.st13{fill:#29ABE2;}
	.st14{filter:url(#Adobe_OpacityMaskFilter_3_);}
	.st15{mask:url(#SVGID_7_);}
	.st16{filter:url(#Adobe_OpacityMaskFilter_4_);}
	.st17{mask:url(#SVGID_8_);}
	.st18{fill:#0069D0;}
	.st19{filter:url(#Adobe_OpacityMaskFilter_5_);}
	.st20{mask:url(#SVGID_9_);}
	.st21{fill:url(#SVGID_10_);}
	.st22{filter:url(#Adobe_OpacityMaskFilter_6_);}
	.st23{mask:url(#SVGID_11_);}
	.st24{fill:#0000FF;}
	.st25{filter:url(#Adobe_OpacityMaskFilter_7_);}
	.st26{mask:url(#SVGID_12_);}
	.st27{filter:url(#Adobe_OpacityMaskFilter_8_);}
	.st28{mask:url(#SVGID_13_);}
	.st29{fill:#662D91;}
	.st30{filter:url(#Adobe_OpacityMaskFilter_9_);}
	.st31{mask:url(#SVGID_14_);}
	.st32{filter:url(#Adobe_OpacityMaskFilter_10_);}
	.st33{mask:url(#SVGID_15_);}
	.st34{fill:#EA1111;}
	.st35{filter:url(#Adobe_OpacityMaskFilter_11_);}
	.st36{mask:url(#SVGID_16_);}
	.st37{fill:#FF1D25;}
	.st38{filter:url(#Adobe_OpacityMaskFilter_12_);}
	.st39{mask:url(#SVGID_17_);}
	.st40{filter:url(#Adobe_OpacityMaskFilter_13_);}
	.st41{mask:url(#SVGID_18_);}
	.st42{fill:#FF0000;}
	.st43{filter:url(#Adobe_OpacityMaskFilter_14_);}
	.st44{mask:url(#SVGID_19_);}
	.st45{fill:#FFFFFF;}
	.st46{filter:url(#Adobe_OpacityMaskFilter_15_);}
	.st47{mask:url(#SVGID_20_);}
	.st48{fill:#FFFFD2;}
	.st49{filter:url(#Adobe_OpacityMaskFilter_16_);}
	.st50{mask:url(#SVGID_21_);}
	.st51{filter:url(#Adobe_OpacityMaskFilter_17_);}
	.st52{mask:url(#SVGID_22_);}
	.st53{filter:url(#Adobe_OpacityMaskFilter_18_);}
	.st54{mask:url(#SVGID_23_);}
	.st55{filter:url(#Adobe_OpacityMaskFilter_19_);}
	.st56{mask:url(#SVGID_24_);}
	.st57{filter:url(#Adobe_OpacityMaskFilter_20_);}
	.st58{mask:url(#SVGID_25_);}
	.st59{fill:#93278F;}
	.st60{filter:url(#Adobe_OpacityMaskFilter_21_);}
	.st61{mask:url(#SVGID_26_);}
	.st62{fill:#B400CE;}
	.st63{filter:url(#Adobe_OpacityMaskFilter_22_);}
	.st64{mask:url(#SVGID_27_);}
	.st65{fill:#00FF00;}
	.st66{filter:url(#Adobe_OpacityMaskFilter_23_);}
	.st67{mask:url(#SVGID_28_);}
	.st68{filter:url(#Adobe_OpacityMaskFilter_24_);}
	.st69{mask:url(#SVGID_29_);}
	.st70{filter:url(#Adobe_OpacityMaskFilter_25_);}
	.st71{mask:url(#SVGID_30_);}
	.st72{filter:url(#Adobe_OpacityMaskFilter_26_);}
	.st73{mask:url(#SVGID_31_);}
	.st74{fill:#9E005D;}
	.st75{filter:url(#Adobe_OpacityMaskFilter_27_);}
	.st76{mask:url(#SVGID_32_);}
	.st77{filter:url(#Adobe_OpacityMaskFilter_28_);}
	.st78{mask:url(#SVGID_33_);}
	.st79{filter:url(#Adobe_OpacityMaskFilter_29_);}
	.st80{mask:url(#SVGID_34_);}
	.st81{fill:#CB00D6;}
	.st82{fill:#8800A0;}
	.st83{fill:#2E3192;}
	.st84{fill:#7BFCFF;}
	.st85{fill:#003DFF;}
	.st86{fill:#004FFF;}
	.st87{fill:#565656;}
	.st88{fill:#FFEC00;}
	.st89{fill:#FFDA00;}
	.st90{fill:#5B5B5B;}
	.st91{fill:#0071BC;}
	.st92{fill:#6BFF8D;}
	.st93{fill:#7AC943;}
	.st94{fill:#E05FFF;}
</style>
<g id="Layer_2" class="st0">
</g>
<g id="Layer_3">
</g>
<g id="Layer_1">
	<g>
		<path class="st83" d="M66.4,1047.3l42.7,11.4l11.4,42.7l-31.3,31.3l-42.7-11.4l-11.4-42.7L66.4,1047.3 M65.7,1044.7l-33.2,33.2
			l12.1,45.3l45.3,12.1l33.2-33.2l-12.1-45.3L65.7,1044.7L65.7,1044.7z"/>
	</g>
	<g>
		<path class="st45" d="M27.9,912.8l60.8,16.3l16.3,60.8l-44.5,44.5l-60.8-16.3l-16.3-60.8L27.9,912.8 M26.9,909.1l-47.2,47.2
			l17.3,64.5l64.5,17.3l47.2-47.2l-17.3-64.5L26.9,909.1L26.9,909.1z"/>
	</g>
	<g>
		<path class="st24" d="M139.1,1000l25.5,6.8l6.8,25.5l-18.7,18.7l-25.5-6.8l-6.8-25.5L139.1,1000 M138.7,998.5l-19.8,19.8l7.3,27.1
			l27.1,7.3l19.8-19.8l-7.3-27.1L138.7,998.5L138.7,998.5z"/>
	</g>
	<g>
		<path class="st83" d="M11.7,801.5l22.6,22.6L26,855l-30.9,8.3l-22.6-22.6l8.3-30.9L11.7,801.5 M12.2,799.7l-32.7,8.8l-8.8,32.7
			l24,24l32.7-8.8l8.8-32.7L12.2,799.7L12.2,799.7z"/>
	</g>
	<g>
		<path class="st45" d="M113.7,764.1l32.2,32.2l-11.8,43.9L90.2,852L58,819.8l11.8-43.9L113.7,764.1 M114.5,761.5L67.9,774
			l-12.5,46.6l34.1,34.1l46.6-12.5l12.5-46.6L114.5,761.5L114.5,761.5z"/>
	</g>
	<g>
		<path class="st24" d="M69.4,863.1l13.5,13.5L78,895.1L59.5,900l-13.5-13.5l4.9-18.4L69.4,863.1 M69.7,862l-19.5,5.2l-5.2,19.5
			l14.3,14.3l19.5-5.2l5.2-19.5L69.7,862L69.7,862z"/>
	</g>
</g>
</svg>
