<?xml version="1.0" encoding="utf-8"?>
<!-- Generator: Adobe Illustrator 24.0.1, SVG Export Plug-In . SVG Version: 6.00 Build 0)  -->
<svg version="1.1" xmlns="http://www.w3.org/2000/svg" xmlns:xlink="http://www.w3.org/1999/xlink" x="0px" y="0px"
	 viewBox="0 0 610 1080" style="enable-background:new 0 0 610 1080;" xml:space="preserve">
<style type="text/css">
	.st0{display:none;}
	.st1{display:inline;}
	.st2{fill:url(#SVGID_1_);}
	.st3{fill:url(#SVGID_2_);}
	.st4{opacity:0.42;}
	.st5{filter:url(#Adobe_OpacityMaskFilter);}
	.st6{mask:url(#SVGID_3_);}
	.st7{fill:url(#SVGID_4_);}
	.st8{filter:url(#Adobe_OpacityMaskFilter_1_);}
	.st9{mask:url(#SVGID_5_);}
	.st10{fill:#FF00FF;}
	.st11{filter:url(#Adobe_OpacityMaskFilter_2_);}
	.st12{mask:url(#SVGID_6_);}
	.st13{fill:#29ABE2;}
	.st14{filter:url(#Adobe_OpacityMaskFilter_3_);}
	.st15{mask:url(#SVGID_7_);}
	.st16{filter:url(#Adobe_OpacityMaskFilter_4_);}
	.st17{mask:url(#SVGID_8_);}
	.st18{fill:#0069D0;}
	.st19{filter:url(#Adobe_OpacityMaskFilter_5_);}
	.st20{mask:url(#SVGID_9_);}
	.st21{fill:url(#SVGID_10_);}
	.st22{filter:url(#Adobe_OpacityMaskFilter_6_);}
	.st23{mask:url(#SVGID_11_);}
	.st24{fill:#0000FF;}
	.st25{filter:url(#Adobe_OpacityMaskFilter_7_);}
	.st26{mask:url(#SVGID_12_);}
	.st27{filter:url(#Adobe_OpacityMaskFilter_8_);}
	.st28{mask:url(#SVGID_13_);}
	.st29{fill:#662D91;}
	.st30{filter:url(#Adobe_OpacityMaskFilter_9_);}
	.st31{mask:url(#SVGID_14_);}
	.st32{filter:url(#Adobe_OpacityMaskFilter_10_);}
	.st33{mask:url(#SVGID_15_);}
	.st34{fill:#EA1111;}
	.st35{filter:url(#Adobe_OpacityMaskFilter_11_);}
	.st36{mask:url(#SVGID_16_);}
	.st37{fill:#FF1D25;}
	.st38{filter:url(#Adobe_OpacityMaskFilter_12_);}
	.st39{mask:url(#SVGID_17_);}
	.st40{filter:url(#Adobe_OpacityMaskFilter_13_);}
	.st41{mask:url(#SVGID_18_);}
	.st42{fill:#FF0000;}
	.st43{filter:url(#Adobe_OpacityMaskFilter_14_);}
	.st44{mask:url(#SVGID_19_);}
	.st45{fill:#FFFFFF;}
	.st46{filter:url(#Adobe_OpacityMaskFilter_15_);}
	.st47{mask:url(#SVGID_20_);}
	.st48{fill:#FFFFD2;}
	.st49{filter:url(#Adobe_OpacityMaskFilter_16_);}
	.st50{mask:url(#SVGID_21_);}
	.st51{filter:url(#Adobe_OpacityMaskFilter_17_);}
	.st52{mask:url(#SVGID_22_);}
	.st53{filter:url(#Adobe_OpacityMaskFilter_18_);}
	.st54{mask:url(#SVGID_23_);}
	.st55{filter:url(#Adobe_OpacityMaskFilter_19_);}
	.st56{mask:url(#SVGID_24_);}
	.st57{filter:url(#Adobe_OpacityMaskFilter_20_);}
	.st58{mask:url(#SVGID_25_);}
	.st59{fill:#93278F;}
	.st60{filter:url(#Adobe_OpacityMaskFilter_21_);}
	.st61{mask:url(#SVGID_26_);}
	.st62{fill:#B400CE;}
	.st63{filter:url(#Adobe_OpacityMaskFilter_22_);}
	.st64{mask:url(#SVGID_27_);}
	.st65{fill:#00FF00;}
	.st66{filter:url(#Adobe_OpacityMaskFilter_23_);}
	.st67{mask:url(#SVGID_28_);}
	.st68{filter:url(#Adobe_OpacityMaskFilter_24_);}
	.st69{mask:url(#SVGID_29_);}
	.st70{filter:url(#Adobe_OpacityMaskFilter_25_);}
	.st71{mask:url(#SVGID_30_);}
	.st72{filter:url(#Adobe_OpacityMaskFilter_26_);}
	.st73{mask:url(#SVGID_31_);}
	.st74{fill:#9E005D;}
	.st75{filter:url(#Adobe_OpacityMaskFilter_27_);}
	.st76{mask:url(#SVGID_32_);}
	.st77{filter:url(#Adobe_OpacityMaskFilter_28_);}
	.st78{mask:url(#SVGID_33_);}
	.st79{filter:url(#Adobe_OpacityMaskFilter_29_);}
	.st80{mask:url(#SVGID_34_);}
	.st81{fill:#CB00D6;}
	.st82{fill:#8800A0;}
	.st83{fill:#2E3192;}
	.st84{fill:#7BFCFF;}
	.st85{fill:#003DFF;}
	.st86{fill:#004FFF;}
	.st87{fill:#565656;}
	.st88{fill:#FFEC00;}
	.st89{fill:#FFDA00;}
	.st90{fill:#5B5B5B;}
	.st91{fill:#0071BC;}
	.st92{fill:#6BFF8D;}
	.st93{fill:#7AC943;}
	.st94{fill:#E05FFF;}
</style>
<g id="Layer_2" class="st0">
</g>
<g id="Layer_3">
</g>
<g id="Layer_1">
	<g>
		<path class="st10" d="M544.3,63.5l34.1,9.1l9.1,34.1l-24.9,24.9l-34.1-9.1l-9.1-34.1L544.3,63.5 M543.8,61.4l-26.5,26.5L527,124
			l36.1,9.7l26.5-26.5l-9.7-36.1L543.8,61.4L543.8,61.4z"/>
	</g>
	<g>
		<path class="st45" d="M566.3-15.7l34.1,9.1l9.1,34.1l-24.9,24.9l-34.1-9.1l-9.1-34.1L566.3-15.7 M565.8-17.8L539.3,8.7l9.7,36.1
			l36.1,9.7L611.6,28l-9.7-36.1L565.8-17.8L565.8-17.8z"/>
	</g>
	<g>
		<path class="st29" d="M505.1-10.2L524.6-5l5.2,19.5l-14.3,14.3L496,23.6L490.8,4L505.1-10.2 M504.7-11.4L489.6,3.7l5.5,20.7
			l20.7,5.5L531,14.8l-5.5-20.7L504.7-11.4L504.7-11.4z"/>
	</g>
	<g>
		<path class="st10" d="M580.4,155.2l19.9,19.9l-7.3,27.2l-27.2,7.3l-19.9-19.9l7.3-27.2L580.4,155.2 M580.8,153.5l-28.8,7.7
			l-7.7,28.8l21.1,21.1l28.8-7.7l7.7-28.8L580.8,153.5L580.8,153.5z"/>
	</g>
	<g>
		<path class="st45" d="M517.2,137.6l19.9,19.9l-7.3,27.2l-27.2,7.3l-19.9-19.9l7.3-27.2L517.2,137.6 M517.7,136l-28.8,7.7
			l-7.7,28.8l21.1,21.1l28.8-7.7l7.7-28.8L517.7,136L517.7,136z"/>
	</g>
	<g>
		<path class="st29" d="M506.9,201.2l11.4,11.4l-4.2,15.6l-15.6,4.2L487.2,221l4.2-15.6L506.9,201.2 M507.1,200.3l-16.5,4.4
			l-4.4,16.5l12.1,12.1l16.5-4.4l4.4-16.5L507.1,200.3L507.1,200.3z"/>
	</g>
</g>
</svg>
