<?xml version="1.0" encoding="utf-8"?>
<!-- Generator: Adobe Illustrator 24.0.1, SVG Export Plug-In . SVG Version: 6.00 Build 0)  -->
<svg version="1.1" xmlns="http://www.w3.org/2000/svg" xmlns:xlink="http://www.w3.org/1999/xlink" x="0px" y="0px"
	 viewBox="0 0 610 1080" style="enable-background:new 0 0 610 1080; opacity:0.4;" xml:space="preserve">
<style type="text/css">
	.st0{display:none;}
	.st1{display:inline;}
	.st2{fill:url(#SVGID_1_);}
	.st3{fill:url(#SVGID_2_);}
	.st4{fill:#E05FFF;}
	.st5{fill:#CB00D6;}
	.st6{fill:#8800A0;}
	.st7{fill:#7BFCFF;}
	.st8{fill:#003DFF;}
	.st9{fill:#004FFF;}
	.st10{opacity:0.42;}
</style>
<g id="Layer_2" class="st0">
	<g class="st1">
		<rect width="610" height="1080"/>
	</g>
</g>
<g id="Layer_3">
</g>
<g id="Layer_1">
	<g>
		<path class="st7" d="M130.8-141l128.8,34.5l34.5,128.8l-94.3,94.3L71,82.1L36.5-46.7L130.8-141 M128.7-148.8l-100,100L65.3,87.9
			l136.6,36.6l100-100l-36.6-136.6L128.7-148.8L128.7-148.8z"/>
	</g>
	<g>
		<path class="st8" d="M497,12.7l128.8,34.5L660.3,176L566,270.3l-128.8-34.5L402.7,107L497,12.7 M494.9,4.9l-100,100l36.6,136.6
			l136.6,36.6l100-100L631.5,41.5L494.9,4.9L494.9,4.9z"/>
	</g>
	<g>
		<path class="st9" d="M209.3,210.4l73.8,19.8l19.8,73.8l-54,54l-73.8-19.8l-19.8-73.8L209.3,210.4 M208.1,205.9l-57.3,57.3l21,78.3
			l78.3,21l57.3-57.3l-21-78.3L208.1,205.9L208.1,205.9z"/>
	</g>
	<g class="st10">
		<image style="overflow:visible;" width="343" height="1446" xlink:href="56318523.png"  transform="matrix(1 0 0 1 368 -161)">
		</image>
	</g>
</g>
</svg>
