<?xml version="1.0" encoding="UTF-8"?>
<svg id="Layer_1" data-name="Layer 1" xmlns="http://www.w3.org/2000/svg" xmlns:xlink="http://www.w3.org/1999/xlink" viewBox="0 0 3973.38 1326.34">
  <defs>
    <style>
      .cls-1 {
        fill: url(#linear-gradient);
      }

      .cls-2 {
        fill: #e11919;
      }
    </style>
    <linearGradient id="linear-gradient" x1="466.21" y1="623.25" x2="3816.22" y2="623.25" gradientUnits="userSpaceOnUse">
      <stop offset="0" stop-color="#eeeded"/>
      <stop offset="1" stop-color="#e8d8d8"/>
    </linearGradient>
  </defs>
  <g>
    <path class="cls-2" d="m273.39,455.91v320.53l100.19-55.9,172.97-306.46v-111.62l-273.16,153.44Zm234.85-41.45l-150.8,271.01-46.11,26.45v-235.46l196.91-110v48Zm301.3,459.23l-351.89,1.07-97.72,57.02,279.63,148.63,267.37-154.95-97.39-51.77Zm-374.81,56.61l45.63-25.92,310.13.85,41.88,22.25-192.21,112.01-205.44-109.19Zm292.48-627.83v111.62l172.95,306.46,100.19,55.9v-320.53l-273.14-153.44Zm235.22,409.45l-46.11-26.45-150.82-271.01v-48l196.93,110v235.46Zm-235.22-409.45v111.62l172.95,306.46,100.19,55.9v-320.53l-273.14-153.44Zm235.22,409.45l-46.11-26.45-150.82-271.01v-48l196.93,110v235.46Zm-152.89,161.77l-351.89,1.07-97.72,57.02,279.63,148.63,267.37-154.95-97.39-51.77Zm-374.81,56.61l45.63-25.92,310.13.85,41.88,22.25-192.21,112.01-205.44-109.19Zm-161.34-474.39v320.53l100.19-55.9,172.97-306.46v-111.62l-273.16,153.44Zm234.85-41.45l-150.8,271.01-46.11,26.45v-235.46l196.91-110v48Zm-234.85,41.45v320.53l100.19-55.9,172.97-306.46v-111.62l-273.16,153.44Zm234.85-41.45l-150.8,271.01-46.11,26.45v-235.46l196.91-110v48Zm301.3,459.23l-351.89,1.07-97.72,57.02,279.63,148.63,267.37-154.95-97.39-51.77Zm-374.81,56.61l45.63-25.92,310.13.85,41.88,22.25-192.21,112.01-205.44-109.19Zm292.48-627.83v111.62l172.95,306.46,100.19,55.9v-320.53l-273.14-153.44Zm235.22,409.45l-46.11-26.45-150.82-271.01v-48l196.93,110v235.46Zm-235.22-409.45v111.62l172.95,306.46,100.19,55.9v-320.53l-273.14-153.44Zm235.22,409.45l-46.11-26.45-150.82-271.01v-48l196.93,110v235.46Zm-504.79,162.84l-97.72,57.02,279.63,148.63,267.37-154.95-97.39-51.77-351.89,1.07Zm182.52,164.74l-205.44-109.19,45.63-25.92,310.13.85,41.88,22.25-192.21,112.01Zm-93.62-625.41v-111.62l-273.16,153.44v320.53l100.19-55.9,172.97-306.46Zm-235.22,297.83v-235.46l196.91-110v48l-150.8,271.01-46.11,26.45ZM637.68,96.59L142.37,370.24v584.33l495.31,275.17,494.96-275.17V372.51L637.68,96.59Zm416,774.49l-171.33-94.82-83.95-145.08-55.94,37.32,56.89,98.32-115.55.53v67.11l163.77-.75,170.36,94.29-380.28,211.4-380.24-211.24,169.02-92.51,165.33-.75v-67.13l-115.82.53,57.12-99.34-56.27-36.73-83.39,145-172.08,94.21v-454.61l382.63-211.4v205.73l-80.39,139.77,56.57,36.24,57.46-99.9,58.35,100.8,55.98-37.25-80.85-139.71v-205.53l382.63,213.29v452.2Zm-53.33-94.64v-320.53l-273.14-153.44v111.62l172.95,306.46,100.19,55.9Zm-234.85-409.98l196.93,110v235.46l-46.11-26.45-150.82-271.01v-48Zm-405.58,565.32l279.63,148.63,267.37-154.95-97.39-51.77-351.89,1.07-97.72,57.02Zm430.57-26.55l41.88,22.25-192.21,112.01-205.44-109.19,45.63-25.92,310.13.85Zm-243.94-602.77l-273.16,153.44v320.53l100.19-55.9,172.97-306.46v-111.62Zm-38.31,111.99l-150.8,271.01-46.11,26.45v-235.46l196.91-110v48Zm-234.85,41.45v320.53l100.19-55.9,172.97-306.46v-111.62l-273.16,153.44Zm234.85-41.45l-150.8,271.01-46.11,26.45v-235.46l196.91-110v48Zm301.3,459.23l-351.89,1.07-97.72,57.02,279.63,148.63,267.37-154.95-97.39-51.77Zm-374.81,56.61l45.63-25.92,310.13.85,41.88,22.25-192.21,112.01-205.44-109.19Zm292.48-627.83v111.62l172.95,306.46,100.19,55.9v-320.53l-273.14-153.44Zm235.22,409.45l-46.11-26.45-150.82-271.01v-48l196.93,110v235.46Zm-235.22-409.45v111.62l172.95,306.46,100.19,55.9v-320.53l-273.14-153.44Zm235.22,409.45l-46.11-26.45-150.82-271.01v-48l196.93,110v235.46Zm-152.89,161.77l-351.89,1.07-97.72,57.02,279.63,148.63,267.37-154.95-97.39-51.77Zm-374.81,56.61l45.63-25.92,310.13.85,41.88,22.25-192.21,112.01-205.44-109.19Zm-161.34-474.39v320.53l100.19-55.9,172.97-306.46v-111.62l-273.16,153.44Zm234.85-41.45l-150.8,271.01-46.11,26.45v-235.46l196.91-110v48Zm-234.85,41.45v320.53l100.19-55.9,172.97-306.46v-111.62l-273.16,153.44Zm234.85-41.45l-150.8,271.01-46.11,26.45v-235.46l196.91-110v48Zm301.3,459.23l-351.89,1.07-97.72,57.02,279.63,148.63,267.37-154.95-97.39-51.77Zm-374.81,56.61l45.63-25.92,310.13.85,41.88,22.25-192.21,112.01-205.44-109.19Zm292.48-627.83v111.62l172.95,306.46,100.19,55.9v-320.53l-273.14-153.44Zm235.22,409.45l-46.11-26.45-150.82-271.01v-48l196.93,110v235.46ZM273.39,455.91v320.53l100.19-55.9,172.97-306.46v-111.62l-273.16,153.44Zm234.85-41.45l-150.8,271.01-46.11,26.45v-235.46l196.91-110v48Zm218.98-111.99v111.62l172.95,306.46,100.19,55.9v-320.53l-273.14-153.44Zm235.22,409.45l-46.11-26.45-150.82-271.01v-48l196.93,110v235.46Zm-152.89,161.77l-351.89,1.07-97.72,57.02,279.63,148.63,267.37-154.95-97.39-51.77Zm-374.81,56.61l45.63-25.92,310.13.85,41.88,22.25-192.21,112.01-205.44-109.19Z"/>
    <path d="m882.35,776.26l171.33,94.82v-452.2l-382.63-213.29v205.53l80.85,139.71-55.98,37.25-58.35-100.8-57.46,99.9-56.57-36.24,80.39-139.77v-205.73l-382.63,211.4v454.61l172.08-94.21,83.39-145,56.27,36.73-57.12,99.34,115.82-.53v67.13l-165.33.75-169.02,92.51,380.24,211.24,380.28-211.4-170.36-94.29-163.77.75v-67.11l115.55-.53-56.89-98.32,55.94-37.32,83.95,145.08Zm-508.77-55.72l-100.19,55.9v-320.53l273.16-153.44v111.62l-172.97,306.46Zm435.96,153.15l97.39,51.77-267.37,154.95-279.63-148.63,97.72-57.02,351.89-1.07Zm-82.33-459.6v-111.62l273.14,153.44v320.53l-100.19-55.9-172.95-306.46Z"/>
    <polygon points="832.38 927.47 640.17 1039.49 434.73 930.3 480.36 904.38 790.49 905.23 832.38 927.47"/>
    <polygon points="508.24 366.45 508.24 414.46 357.44 685.46 311.33 711.91 311.33 476.46 508.24 366.45"/>
    <polygon points="962.43 476.46 962.43 711.91 916.32 685.46 765.5 414.46 765.5 366.45 962.43 476.46"/>
  </g>
  <path class="cls-1" d="m882.46,515h269.91c24.52,0,45.94,9.59,64.25,28.75,11.15,13.16,16.72,27.37,16.72,42.64v47.27c0,24.53-13.22,44.83-39.65,60.91l-10.27,4.63,49.92,76.75-1.19.49h-96.98c-2.39-2.76-18.23-26.72-47.53-71.87h-124.45v70.66c0,.81-.4,1.22-1.19,1.22h-79.54c-.8,0-1.19-.4-1.19-1.22v-258.99c.16-.81.56-1.22,1.19-1.22Zm80.74,62.13v65.3h155.5c16.56,0,27.07-7.39,31.53-22.17.64-3.41.96-6.74.96-9.99,0-15.75-6.45-26.23-19.35-31.43-3.98-1.13-8.04-1.71-12.18-1.71h-156.45Zm365.19-62.13h349.69c.8.16,1.19.57,1.19,1.22v59.69c0,.81-.4,1.22-1.19,1.22h-349.69c-.8,0-1.19-.4-1.19-1.22v-59.69c.16-.81.56-1.22,1.19-1.22Zm0,102.33h349.69c.8.16,1.19.57,1.19,1.22v54.33c0,.81-.4,1.22-1.19,1.22h-349.69c-.8,0-1.19-.4-1.19-1.22v-54.33c.16-.81.56-1.22,1.19-1.22Zm0,97.21h349.69c.8,0,1.19.33,1.19.97v59.69c0,.81-.4,1.22-1.19,1.22h-349.69c-.8,0-1.19-.4-1.19-1.22v-59.69c.16-.65.56-.97,1.19-.97Zm445.92-199.54h271.59c24.2,0,46.18,10.72,65.93,32.16,8.92,12.83,13.38,25.5,13.38,38.01v190.04c0,.81-.4,1.22-1.19,1.22h-79.78c-.8,0-1.19-.4-1.19-1.22v-151.3c0-23.06-9.71-38.09-29.14-45.07-4.62-1.13-8.84-1.71-12.66-1.71h-146.18v198.08c0,.81-.4,1.22-1.19,1.22h-79.54c-.8,0-1.19-.4-1.19-1.22v-258.99c.16-.81.56-1.22,1.19-1.22Zm813.97,0h349.69c.8.16,1.19.57,1.19,1.22v59.69c0,.81-.4,1.22-1.19,1.22h-133.52v198.08c0,.81-.4,1.22-1.19,1.22h-79.78c-.8,0-1.19-.4-1.19-1.22v-198.08h-134c-.8,0-1.19-.4-1.19-1.22v-59.69c.16-.81.56-1.22,1.19-1.22Zm523.79,0h190.37c28.66,0,51.99,11.29,69.99,33.87,8.44,12.02,12.66,24.69,12.66,38.01v118.16c0,26.48-14.57,47.35-43.71,62.62-12.26,5.85-25.24,8.77-38.93,8.77h-187.98c-27.87,0-51.04-11.53-69.51-34.6-7.96-11.53-11.94-23.55-11.94-36.06v-119.38c0-27.77,16.08-49.38,48.25-64.81,12.74-4.39,23.01-6.58,30.81-6.58Zm2.87,104.76v51.41c0,21.12,10.75,35.17,32.25,42.15,3.02.81,6.21,1.22,9.55,1.22h105.1c18.79,0,31.93-10.15,39.41-30.45,1.11-2.92,1.67-6.82,1.67-11.69v-49.7c0-22.25-10.11-37.11-30.34-44.59-5.89-.65-11.07-.97-15.53-.97h-100.32c-19.27,0-32.65,10.07-40.13,30.21-1.12,4.06-1.67,8.2-1.67,12.43Zm365.19-104.76h271.59c24.2,0,46.18,10.72,65.93,32.16,8.92,12.83,13.38,25.5,13.38,38.01v190.04c0,.81-.4,1.22-1.19,1.22h-79.78c-.8,0-1.19-.4-1.19-1.22v-151.3c0-23.06-9.71-38.09-29.14-45.07-4.62-1.13-8.84-1.71-12.66-1.71h-146.18v198.08c0,.81-.4,1.22-1.19,1.22h-79.54c-.8,0-1.19-.4-1.19-1.22v-258.99c.16-.81.56-1.22,1.19-1.22ZM473.68,776.44h77.77c.96,0,1.84-.55,2.25-1.42l90.12-187.63c.91-1.89,3.6-1.89,4.51,0l58.46,121.31c.8,1.66-.41,3.59-2.25,3.59h-55.34c-1.38,0-2.5,1.12-2.5,2.5v59.15c0,1.38,1.12,2.5,2.5,2.5h166.24c1.91,0,3.11-2.05,2.19-3.71l-166.92-301.38c-.94-1.7-3.38-1.72-4.35-.04l-174.84,301.38c-.97,1.67.24,3.76,2.16,3.76Zm1737.74,0h77.77c.96,0,1.84-.55,2.25-1.42l90.12-187.63c.91-1.89,3.6-1.89,4.51,0l58.46,121.31c.8,1.66-.41,3.59-2.25,3.59h-55.34c-1.38,0-2.5,1.12-2.5,2.5v59.15c0,1.38,1.12,2.5,2.5,2.5h166.24c1.91,0,3.11-2.05,2.19-3.71l-166.92-301.38c-.94-1.7-3.38-1.72-4.35-.04l-174.84,301.38c-.97,1.67.24,3.76,2.16,3.76Z"/>
</svg>